<svg xmlns="http://www.w3.org/2000/svg" viewBox="0 0 72 84" role="img" aria-labelledby="title">
  <title>Golan Pick logo mark</title>
  <defs>
    <linearGradient id="markGradient" x1="9" y1="5" x2="60" y2="75" gradientUnits="userSpaceOnUse">
      <stop offset="0" stop-color="#12d6d1"/>
      <stop offset="0.62" stop-color="#08a99b"/>
      <stop offset="1" stop-color="#087768"/>
    </linearGradient>
  </defs>
  <path fill="url(#markGradient)" d="M36 2C17.8 2 5 15.1 5 32.5c0 23.2 31 49.5 31 49.5s31-26.3 31-49.5C67 15.1 54.2 2 36 2Z"/>
  <path fill="#ffffff" d="M37.2 17.2c9.5 0 17.1 5.6 19.7 13.6H45.8c-1.8-2.6-4.8-4.2-8.6-4.2-7.2 0-12.1 5-12.1 12.4 0 7.8 5.2 12.9 12.9 12.9 5.3 0 9.1-2.4 10.9-6.8H35.4v-8h24.2c.1 1 .2 2 .2 3.1 0 12.3-8.8 21.2-22.2 21.2-13.1 0-22.9-9.4-22.9-22.4 0-12.7 9.7-21.8 22.5-21.8Z"/>
  <path fill="url(#markGradient)" d="M48.9 50.6h13.6L48.9 64.2z"/>
</svg>
